# xmcd
# 
# Track frame offsets:
#	150
#	16827
#	34082
#	49975
#	63477
#	81260
#	99020
#	113595
#	131897
#	149452
#	164635
#	182287
#	198130
#	217032
#	233005
#	248097
#
# Disc length: 3515 seconds
#
# Revision: 1
# Processed by: cddbd v1.4PL0 Copyright (c) Steve Scherf et al.
# Submitted via: Audio-CD-Archiv 2.10.441
#
DISCID=d60db910
DTITLE=Die Paldauer - Tanz mit mir, Corinna
DYEAR=1900
DGENRE=blues
TTITLE0=Tanz mit mir, Corinna
TTITLE1=Tr‰nen der Liebe
TTITLE2=Bon giorno
TTITLE3=Z‰rtliche Augen
TTITLE4=Ciao Amore
TTITLE5=Magerita
TTITLE6=Jamaika
TTITLE7=Du muﬂt nicht weinen, my love
TTITLE8=Eine rote Rose
TTITLE9=Das Feuer von Rhodos
TTITLE10=Sag mir warum
TTITLE11=Der erste Tag nach der Ewigkeit
TTITLE12=Ein Leben mit Dir
TTITLE13=Komm doch zu mir heut Nacht
TTITLE14=Man sagt: Ich liebe dich
TTITLE15=Endlich zu Hause
EXTD=
EXTT0=
EXTT1=
EXTT2=
EXTT3=
EXTT4=
EXTT5=
EXTT6=
EXTT7=
EXTT8=
EXTT9=
EXTT10=
EXTT11=
EXTT12=
EXTT13=
EXTT14=
EXTT15=
PLAYORDER=
